<?xml version="1.0" encoding="UTF-8"?>
<svg width="181px" height="100px" viewBox="0 0 181 100" version="1.1" xmlns="http://www.w3.org/2000/svg" xmlns:xlink="http://www.w3.org/1999/xlink">
    <!-- Generator: Sketch 52.3 (67297) - http://www.bohemiancoding.com/sketch -->
    <title>cutejs-logo</title>
    <desc>Created with Sketch.</desc>
    <g id="cutejs-logo" stroke="none" stroke-width="1" fill="none" fill-rule="evenodd">
        <g id="icon">
            <rect id="Rectangle" fill="#D5763C" fill-rule="nonzero" x="30" y="0" width="120" height="100" rx="8"></rect>
            <g id="Group" transform="translate(127.000000, 0.000000)">
                <rect id="Rectangle" fill="#D5763C" fill-rule="nonzero" x="0" y="33" width="33" height="36"></rect>
                <rect id="Rectangle" fill="#8A4317" fill-rule="nonzero" x="10" y="0" width="8" height="3"></rect>
                <rect id="Rectangle" fill="#8A4317" fill-rule="nonzero" x="11" y="97" width="8" height="3"></rect>
                <path d="M32.2090351,50 C29.3258557,48.2252998 27.2918625,45.9876678 26.1069943,43.287037 C24.922126,40.5864063 24.3297008,36.3426215 24.3297008,30.5555556 L24.3297008,18.3449074 C24.3297008,16.5316267 23.8557606,15.1523967 22.9078661,14.2071759 C21.9599715,13.2619552 20.3801709,12.6350324 18.1684169,12.3263889 C15.2852375,11.9405845 13.3697293,11.2847269 12.4218348,10.3587963 C11.4739402,9.43286574 11,8.02470081 11,6.13425926 C11,4.20523727 11.602299,2.70062269 12.806915,1.62037037 C14.011531,0.540118056 15.7196904,0 17.9314444,0 C20.8541194,0 23.5792754,0.424378472 26.1069943,1.27314815 C28.6347131,2.12191782 30.7476964,3.31789352 32.4460075,4.86111111 C34.3812923,6.5972309 35.7438703,8.74805816 36.5337824,11.3136574 C37.3236946,13.8792567 37.7186447,18.4027454 37.7186447,24.8842593 L37.7186447,31.7708333 C37.7186447,38.4838299 40.4240533,42.3611059 45.8349515,43.4027778 C47.1383065,43.59568 48.1454294,43.7885793 48.8563503,43.9814815 C50.5151658,44.4058663 51.7395113,45.1099488 52.5294234,46.09375 C53.3193356,47.0775512 53.7142857,48.3796215 53.7142857,50 C53.7142857,51.6975394 53.2995881,53.0574795 52.4701803,54.0798611 C51.6407726,55.1022428 50.3966796,55.8063252 48.7378641,56.1921296 C48.1059344,56.3078709 47.2172965,56.4621904 46.0719239,56.6550926 C40.5030433,57.6967645 37.7186447,61.6126204 37.7186447,68.4027778 L37.7186447,75.1157407 C37.7186447,81.2114502 37.4224321,85.44559 36.829998,87.818287 C36.2375639,90.1909841 35.230441,92.2067818 33.8085992,93.8657407 C32.2682705,95.6790214 30.0466759,97.1547011 27.1437488,98.2928241 C24.2408216,99.430947 21.2095792,100 18.0499307,100 C15.8381766,100 14.1102697,99.450237 12.8661581,98.3506944 C11.6220465,97.2511519 11,95.7176024 11,93.75 C11,91.9367193 11.4640664,90.5671343 12.3922132,89.6412037 C13.32036,88.7152731 15.2457419,88.0208356 18.1684169,87.5578704 C20.5776489,87.2106464 22.2068183,86.5740787 23.0559738,85.6481481 C23.9051294,84.7222176 24.3297008,83.2368929 24.3297008,81.1921296 L24.3297008,69.5601852 C24.3297008,63.4258953 24.9023785,59.1049508 26.0477511,56.5972222 C27.1931238,54.0894936 29.2468645,51.8904416 32.2090351,50 Z" id="}" fill="#8A4317"></path>
                <path d="M24.2090351,50 C21.3258557,48.2252998 19.2918625,45.9876678 18.1069943,43.287037 C16.922126,40.5864063 16.3297008,36.3426215 16.3297008,30.5555556 L16.3297008,18.3449074 C16.3297008,16.5316267 15.8557606,15.1523967 14.9078661,14.2071759 C13.9599715,13.2619552 12.3801709,12.6350324 10.1684169,12.3263889 C7.28523755,11.9405845 5.36972933,11.2847269 4.42183475,10.3587963 C3.47394018,9.43286574 3,8.02470081 3,6.13425926 C3,4.20523727 3.60229898,2.70062269 4.806915,1.62037037 C6.01153102,0.540118056 7.71969041,0 9.93144442,0 C12.8541194,0 15.5792754,0.424378472 18.1069943,1.27314815 C20.6347131,2.12191782 22.7476964,3.31789352 24.4460075,4.86111111 C26.3812923,6.5972309 27.7438703,8.74805816 28.5337824,11.3136574 C29.3236946,13.8792567 29.7186447,18.4027454 29.7186447,24.8842593 L29.7186447,31.7708333 C29.7186447,38.4838299 32.4240533,42.3611059 37.8349515,43.4027778 C39.1383065,43.59568 40.1454294,43.7885793 40.8563503,43.9814815 C42.5151658,44.4058663 43.7395113,45.1099488 44.5294234,46.09375 C45.3193356,47.0775512 45.7142857,48.3796215 45.7142857,50 C45.7142857,51.6975394 45.2995881,53.0574795 44.4701803,54.0798611 C43.6407726,55.1022428 42.3966796,55.8063252 40.7378641,56.1921296 C40.1059344,56.3078709 39.2172965,56.4621904 38.0719239,56.6550926 C32.5030433,57.6967645 29.7186447,61.6126204 29.7186447,68.4027778 L29.7186447,75.1157407 C29.7186447,81.2114502 29.4224321,85.44559 28.829998,87.818287 C28.2375639,90.1909841 27.230441,92.2067818 25.8085992,93.8657407 C24.2682705,95.6790214 22.0466759,97.1547011 19.1437488,98.2928241 C16.2408216,99.430947 13.2095792,100 10.0499307,100 C7.83817664,100 6.11026974,99.450237 4.86615811,98.3506944 C3.62204648,97.2511519 3,95.7176024 3,93.75 C3,91.9367193 3.46406642,90.5671343 4.3922132,89.6412037 C5.32035997,88.7152731 7.24574194,88.0208356 10.1684169,87.5578704 C12.5776489,87.2106464 14.2068183,86.5740787 15.0559738,85.6481481 C15.9051294,84.7222176 16.3297008,83.2368929 16.3297008,81.1921296 L16.3297008,69.5601852 C16.3297008,63.4258953 16.9023785,59.1049508 18.0477511,56.5972222 C19.1931238,54.0894936 21.2468645,51.8904416 24.2090351,50 Z" id="}" fill="#B35B25"></path>
            </g>
            <g id="Group" transform="translate(27.000000, 50.000000) rotate(-180.000000) translate(-27.000000, -50.000000) ">
                <rect id="Rectangle" fill="#D5763C" fill-rule="nonzero" x="0" y="33" width="33" height="36"></rect>
                <path d="M32.2090351,50 C29.3258557,48.2252998 27.2918625,45.9876678 26.1069943,43.287037 C24.922126,40.5864063 24.3297008,36.3426215 24.3297008,30.5555556 L24.3297008,18.3449074 C24.3297008,16.5316267 23.8557606,15.1523967 22.9078661,14.2071759 C21.9599715,13.2619552 20.3801709,12.6350324 18.1684169,12.3263889 C15.2852375,11.9405845 13.3697293,11.2847269 12.4218348,10.3587963 C11.4739402,9.43286574 11,8.02470081 11,6.13425926 C11,4.20523727 11.602299,2.70062269 12.806915,1.62037037 C14.011531,0.540118056 15.7196904,9.09494702e-13 17.9314444,9.09494702e-13 C20.8541194,9.09494702e-13 23.5792754,0.424378472 26.1069943,1.27314815 C28.6347131,2.12191782 30.7476964,3.31789352 32.4460075,4.86111111 C34.3812923,6.5972309 35.7438703,8.74805816 36.5337824,11.3136574 C37.3236946,13.8792567 37.7186447,18.4027454 37.7186447,24.8842593 L37.7186447,31.7708333 C37.7186447,38.4838299 40.4240533,42.3611059 45.8349515,43.4027778 C47.1383065,43.59568 48.1454294,43.7885793 48.8563503,43.9814815 C50.5151658,44.4058663 51.7395113,45.1099488 52.5294234,46.09375 C53.3193356,47.0775512 53.7142857,48.3796215 53.7142857,50 C53.7142857,51.6975394 53.2995881,53.0574795 52.4701803,54.0798611 C51.6407726,55.1022428 50.3966796,55.8063252 48.7378641,56.1921296 C48.1059344,56.3078709 47.2172965,56.4621904 46.0719239,56.6550926 C40.5030433,57.6967645 37.7186447,61.6126204 37.7186447,68.4027778 L37.7186447,75.1157407 C37.7186447,81.2114502 37.4224321,85.44559 36.829998,87.818287 C36.2375639,90.1909841 35.230441,92.2067818 33.8085992,93.8657407 C32.2682705,95.6790214 30.0466759,97.1547011 27.1437488,98.2928241 C24.2408216,99.430947 21.2095792,100 18.0499307,100 C15.8381766,100 14.1102697,99.450237 12.8661581,98.3506944 C11.6220465,97.2511519 11,95.7176024 11,93.75 C11,91.9367193 11.4640664,90.5671343 12.3922132,89.6412037 C13.32036,88.7152731 15.2457419,88.0208356 18.1684169,87.5578704 C20.5776489,87.2106464 22.2068183,86.5740787 23.0559738,85.6481481 C23.9051294,84.7222176 24.3297008,83.2368929 24.3297008,81.1921296 L24.3297008,69.5601852 C24.3297008,63.4258953 24.9023785,59.1049508 26.0477511,56.5972222 C27.1931238,54.0894936 29.2468645,51.8904416 32.2090351,50 Z" id="}" fill="#8A4317"></path>
                <rect id="Rectangle" fill="#8A4317" fill-rule="nonzero" x="10" y="4.5533679e-13" width="8" height="3"></rect>
                <rect id="Rectangle" fill="#8A4317" fill-rule="nonzero" x="10" y="97" width="8" height="3"></rect>
                <path d="M24.2090351,50 C21.3258557,48.2252998 19.2918625,45.9876678 18.1069943,43.287037 C16.922126,40.5864063 16.3297008,36.3426215 16.3297008,30.5555556 L16.3297008,18.3449074 C16.3297008,16.5316267 15.8557606,15.1523967 14.9078661,14.2071759 C13.9599715,13.2619552 12.3801709,12.6350324 10.1684169,12.3263889 C7.28523755,11.9405845 5.36972933,11.2847269 4.42183475,10.3587963 C3.47394018,9.43286574 3,8.02470081 3,6.13425926 C3,4.20523727 3.60229898,2.70062269 4.806915,1.62037037 C6.01153102,0.540118056 7.71969041,9.09494702e-13 9.93144442,9.09494702e-13 C12.8541194,9.09494702e-13 15.5792754,0.424378472 18.1069943,1.27314815 C20.6347131,2.12191782 22.7476964,3.31789352 24.4460075,4.86111111 C26.3812923,6.5972309 27.7438703,8.74805816 28.5337824,11.3136574 C29.3236946,13.8792567 29.7186447,18.4027454 29.7186447,24.8842593 L29.7186447,31.7708333 C29.7186447,38.4838299 32.4240533,42.3611059 37.8349515,43.4027778 C39.1383065,43.59568 40.1454294,43.7885793 40.8563503,43.9814815 C42.5151658,44.4058663 43.7395113,45.1099488 44.5294234,46.09375 C45.3193356,47.0775512 45.7142857,48.3796215 45.7142857,50 C45.7142857,51.6975394 45.2995881,53.0574795 44.4701803,54.0798611 C43.6407726,55.1022428 42.3966796,55.8063252 40.7378641,56.1921296 C40.1059344,56.3078709 39.2172965,56.4621904 38.0719239,56.6550926 C32.5030433,57.6967645 29.7186447,61.6126204 29.7186447,68.4027778 L29.7186447,75.1157407 C29.7186447,81.2114502 29.4224321,85.44559 28.829998,87.818287 C28.2375639,90.1909841 27.230441,92.2067818 25.8085992,93.8657407 C24.2682705,95.6790214 22.0466759,97.1547011 19.1437488,98.2928241 C16.2408216,99.430947 13.2095792,100 10.0499307,100 C7.83817664,100 6.11026974,99.450237 4.86615811,98.3506944 C3.62204648,97.2511519 3,95.7176024 3,93.75 C3,91.9367193 3.46406642,90.5671343 4.3922132,89.6412037 C5.32035997,88.7152731 7.24574194,88.0208356 10.1684169,87.5578704 C12.5776489,87.2106464 14.2068183,86.5740787 15.0559738,85.6481481 C15.9051294,84.7222176 16.3297008,83.2368929 16.3297008,81.1921296 L16.3297008,69.5601852 C16.3297008,63.4258953 16.9023785,59.1049508 18.0477511,56.5972222 C19.1931238,54.0894936 21.2468645,51.8904416 24.2090351,50 Z" id="}" fill="#B35B25"></path>
            </g>
            <g id="face" transform="translate(54.000000, 25.000000)" fill-rule="nonzero">
                <g id="Group-2">
                    <circle id="Oval" fill="#FFFFFF" cx="16" cy="16" r="16"></circle>
                    <circle id="Oval" fill="#8A4317" cx="18" cy="15" r="11"></circle>
                    <circle id="Oval" fill="#FFFFFF" cx="9.5" cy="10.5" r="4.5"></circle>
                </g>
                <g id="Group-2-Copy" transform="translate(41.000000, 0.000000)">
                    <circle id="Oval" fill="#FFFFFF" cx="16" cy="16" r="16"></circle>
                    <circle id="Oval" fill="#8A4317" cx="18" cy="15" r="11"></circle>
                    <circle id="Oval" fill="#FFFFFF" cx="9.5" cy="10.5" r="4.5"></circle>
                </g>
                <g id="mouth" transform="translate(25.000000, 29.000000)">
                    <path d="M12,17 C12,21 10,23 6,23 C2,23 0,21 0,17" id="Path-3" stroke="#8A4317" stroke-width="3" stroke-linecap="round"></path>
                    <path d="M24,17 C24,21 22,23 18,23 C14,23 12,21 12,17" id="Path-3" stroke="#8A4317" stroke-width="3" stroke-linecap="round"></path>
                    <ellipse id="Oval" fill="#8A4317" cx="12" cy="5" rx="8" ry="5"></ellipse>
                    <path d="M12,7 L12,17" id="Path-4" stroke="#8A4317" stroke-width="3" stroke-linecap="round"></path>
                </g>
            </g>
        </g>
    </g>
</svg>